HIERARCHY
ROOT hip
{
  OFFSET 0 0 0
  CHANNELS 6 Xposition Yposition Zposition Zrotation Yrotation Xrotation
  JOINT abdomen
  {
    OFFSET 0 20.6881 -0.73152
    CHANNELS 3 Zrotation Xrotation Yrotation
    JOINT chest
    {
      OFFSET 0 11.7043 -0.48768
      CHANNELS 3 Zrotation Xrotation Yrotation
      JOINT neck
      {
        OFFSET 0 22.1894 -2.19456
        CHANNELS 3 Zrotation Xrotation Yrotation
        JOINT head
        {
          OFFSET -0.24384 7.07133 1.2192
          CHANNELS 3 Zrotation Xrotation Yrotation
          JOINT leftEye
          {
            OFFSET 4.14528 8.04674 8.04672
            CHANNELS 3 Zrotation Xrotation Yrotation
            End Site
            {
              OFFSET 1 0 0
            }
          }
          JOINT rightEye
          {
            OFFSET -3.6576 8.04674 8.04672
            CHANNELS 3 Zrotation Xrotation Yrotation
            End Site
            {
              OFFSET 1 0 0
            }
          }
        }
      }
      JOINT rCollar
      {
        OFFSET -2.68224 19.2634 -4.8768
        CHANNELS 3 Zrotation Xrotation Yrotation
        JOINT rShldr
        {
          OFFSET -8.77824 -1.95073 1.46304
          CHANNELS 3 Zrotation Xrotation Yrotation
          JOINT rForeArm
          {
            OFFSET -28.1742 -1.7115 0.48768
            CHANNELS 3 Zrotation Xrotation Yrotation
            JOINT rHand
            {
              OFFSET -22.5879 0.773209 7.07136
              CHANNELS 3 Zrotation Xrotation Yrotation
              JOINT rThumb1
              {
                OFFSET -1.2192 -0.487915 3.41376
                CHANNELS 3 Zrotation Xrotation Yrotation
                JOINT rThumb2
                {
                  OFFSET -3.37035 -0.52449 3.41376
                  CHANNELS 3 Zrotation Xrotation Yrotation
                  End Site
                  {
                    OFFSET -1.78271 -1.18214 1.43049
                  }
                }
              }
              JOINT rIndex1
              {
                OFFSET -7.75947 0.938293 5.60832
                CHANNELS 3 Zrotation Xrotation Yrotation
                JOINT rIndex2
                {
                  OFFSET -2.54057 -0.884171 1.56538
                  CHANNELS 3 Zrotation Xrotation Yrotation
                  End Site
                  {
                    OFFSET -1.62519 -0.234802 1.16502
                  }
                }
              }
              JOINT rMid1
              {
                OFFSET -8.24714 1.18213 3.41376
                CHANNELS 3 Zrotation Xrotation Yrotation
                JOINT rMid2
                {
                  OFFSET -3.10165 -0.590103 1.0647
                  CHANNELS 3 Zrotation Xrotation Yrotation
                  End Site
                  {
                    OFFSET -2.48547 -0.328903 0.83742
                  }
                }
              }
              JOINT rRing1
              {
                OFFSET -8.82822 0.546677 1.51678
                CHANNELS 3 Zrotation Xrotation Yrotation
                JOINT rRing2
                {
                  OFFSET -2.60934 -0.819778 -0.0198488
                  CHANNELS 3 Zrotation Xrotation Yrotation
                  End Site
                  {
                    OFFSET -2.33842 -0.294052 0.168128
                  }
                }
              }
              JOINT rPinky1
              {
                OFFSET -8.27202 -0.0477905 -0.4584
                CHANNELS 3 Zrotation Xrotation Yrotation
                JOINT rPinky2
                {
                  OFFSET -1.82734 -0.647385 -0.700984
                  CHANNELS 3 Zrotation Xrotation Yrotation
                  End Site
                  {
                    OFFSET -1.69225 -0.51767 -0.607171
                  }
                }
              }
            }
          }
        }
      }
      JOINT lCollar
      {
        OFFSET 2.68224 19.2634 -4.8768
        CHANNELS 3 Zrotation Xrotation Yrotation
        JOINT lShldr
        {
          OFFSET 8.77824 -1.95073 1.46304
          CHANNELS 3 Zrotation Xrotation Yrotation
          JOINT lForeArm
          {
            OFFSET 28.1742 -1.7115 0.48768
            CHANNELS 3 Zrotation Xrotation Yrotation
            JOINT lHand
            {
              OFFSET 22.5879 0.773209 7.07136
              CHANNELS 3 Zrotation Xrotation Yrotation
              JOINT lThumb1
              {
                OFFSET 1.2192 -0.487915 3.41376
                CHANNELS 3 Zrotation Xrotation Yrotation
                JOINT lThumb2
                {
                  OFFSET 3.37035 -0.52449 3.41376
                  CHANNELS 3 Zrotation Xrotation Yrotation
                  End Site
                  {
                    OFFSET 1.78271 -1.18214 1.43049
                  }
                }
              }
              JOINT lIndex1
              {
                OFFSET 7.75947 0.938293 5.60832
                CHANNELS 3 Zrotation Xrotation Yrotation
                JOINT lIndex2
                {
                  OFFSET 2.54057 -0.884171 1.56538
                  CHANNELS 3 Zrotation Xrotation Yrotation
                  End Site
                  {
                    OFFSET 1.62519 -0.234802 1.16502
                  }
                }
              }
              JOINT lMid1
              {
                OFFSET 8.24714 1.18213 3.41376
                CHANNELS 3 Zrotation Xrotation Yrotation
                JOINT lMid2
                {
                  OFFSET 3.10165 -0.590103 1.0647
                  CHANNELS 3 Zrotation Xrotation Yrotation
                  End Site
                  {
                    OFFSET 2.48547 -0.328903 0.83742
                  }
                }
              }
              JOINT lRing1
              {
                OFFSET 8.82822 0.546677 1.51678
                CHANNELS 3 Zrotation Xrotation Yrotation
                JOINT lRing2
                {
                  OFFSET 2.60934 -0.819778 -0.0198488
                  CHANNELS 3 Zrotation Xrotation Yrotation
                  End Site
                  {
                    OFFSET 2.33842 -0.294052 0.168128
                  }
                }
              }
              JOINT lPinky1
              {
                OFFSET 8.27202 -0.0477905 -0.4584
                CHANNELS 3 Zrotation Xrotation Yrotation
                JOINT lPinky2
                {
                  OFFSET 1.82734 -0.647385 -0.700984
                  CHANNELS 3 Zrotation Xrotation Yrotation
                  End Site
                  {
                    OFFSET 1.69225 -0.51767 -0.607171
                  }
                }
              }
            }
          }
        }
      }
    }
  }
  JOINT rButtock
  {
    OFFSET -8.77824 4.35084 1.2192
    CHANNELS 3 Zrotation Xrotation Yrotation
    JOINT rThigh
    {
      OFFSET 0 -1.70687 -2.19456
      CHANNELS 3 Zrotation Xrotation Yrotation
      JOINT rShin
      {
        OFFSET 0 -36.8199 0.73152
        CHANNELS 3 Zrotation Xrotation Yrotation
        JOINT rFoot
        {
          OFFSET 0.73152 -45.1104 -5.12064
          CHANNELS 3 Zrotation Xrotation Yrotation
          End Site
          {
            OFFSET -1.1221 -3.69964 12.103
          }
        }
      }
    }
  }
  JOINT lButtock
  {
    OFFSET 8.77824 4.35084 1.2192
    CHANNELS 3 Zrotation Xrotation Yrotation
    JOINT lThigh
    {
      OFFSET 0 -1.70687 -2.19456
      CHANNELS 3 Zrotation Xrotation Yrotation
      JOINT lShin
      {
        OFFSET 0 -36.8199 0.73152
        CHANNELS 3 Zrotation Xrotation Yrotation
        JOINT lFoot
        {
          OFFSET -0.73152 -45.1104 -5.12064
          CHANNELS 3 Zrotation Xrotation Yrotation
          End Site
          {
            OFFSET 1.1221 -3.69964 12.103
          }
        }
      }
    }
  }
}
MOTION
Frames:	5
Frame Time:	0.03333
0.0 0.0 0.0 0.0 0.0 0.0 0.0 0.0 0.0 0.0 0.0 0.0 0.0 0.0 0.0 0.0 0.0 0.0 0.0 0.0 0.0 0.0 0.0 0.0 0.0 0.0 0.0 0.0 0.0 0.0 0.0 0.0 0.0 0.0 0.0 0.0 0.0 0.0 0.0 0.0 0.0 0.0 0.0 0.0 0.0 0.0 0.0 0.0 0.0 0.0 0.0 0.0 0.0 0.0 0.0 0.0 0.0 0.0 0.0 0.0 0.0 0.0 0.0 0.0 0.0 0.0 0.0 0.0 0.0 0.0 0.0 0.0 0.0 0.0 0.0 0.0 0.0 0.0 0.0 0.0 0.0 0.0 0.0 0.0 0.0 0.0 0.0 0.0 0.0 0.0 0.0 0.0 0.0 0.0 0.0 0.0 0.0 0.0 0.0 0.0 0.0 0.0 0.0 0.0 0.0 0.0 0.0 0.0 0.0 0.0 0.0 0.0 0.0 0.0 0.0 0.0 0.0 0.0 0.0 0.0 0.0 0.0 0.0 0.0 0.0 0.0 0.0 0.0 0.0 0.0 0.0 0.0
-0.1956 63.4693 0.3067 1.47317 -69.690431 -1.7776 -0.019705 0.004055 -101.629417 -10.786237 -2.531915 103.974006 3.934355 -0.525775 165.421165 42.853768 -13.024409 53.827719 32.256876 -10.304179 -34.634938 -31.121983 -3.838209 13.722327 81.511448 30.245397 6.718416 -151.48266 69.979113 150.942127 17.438611 -0.271074 -75.034818 -81.748196 17.032359 103.906804 33.189252 7.299034 -3.780839 -161.425561 -8.183902 -132.804705 57.227113 65.926853 -75.848142 -169.592636 7.770715 133.780668 -44.16449 26.148898 -84.052207 82.57067 40.110122 19.947906 -98.366988 -24.338841 -106.513586 -138.010185 4.880726 -173.800868 -13.560883 21.224324 -44.915077 -25.972124 16.779706 62.951405 88.070874 -49.774272 -165.129386 -5.875358 0.285172 -8.568544 173.751099 1.634626 41.875375 -18.19602 -11.055182 42.430727 -178.700967 35.152085 -34.427464 -164.056185 -15.5045 81.492592 -80.569094 -29.550033 -7.923851 -110.436341 -76.367729 -168.139235 -170.589732 45.2477 98.911242 -152.485223 39.566138 53.761318 -92.654217 15.582039 76.171622 -179.034856 -22.128537 -170.737803 4.603256 22.284316 72.111748 -54.426124 -48.380402 11.285688 59.082864 14.599288 106.275372 13.712912 60.63483 146.362704 5.108583 1.964013 107.007899 76.865373 -17.744771 -87.905645 -2.174806 -41.94023 -3.252035 -0.246888 43.395678 -6.210069 6.289196 -1.378958 72.493958 -61.43539 -55.088742 113.351772
-2.1143 68.3095 1.6803 175.148031 -8.231531 -172.895207 -9.383244 10.120051 -0.0 3.188305 -9.887294 5.858252 17.468479 37.106693 128.376387 -27.023582 52.768546 -157.67818 -29.435228 -7.020697 26.290128 118.548647 28.012789 -45.53435 -0.747693 43.840344 12.817875 35.248023 -28.092654 32.384659 165.967046 41.1721 77.280234 160.544905 -4.469201 143.988379 -152.060647 23.841479 60.183448 19.80099 -27.56749 68.931462 -168.142243 -23.947984 127.763718 167.167657 -51.193146 137.344282 -170.263504 20.77773 136.199962 -22.451007 -10.555797 19.924551 -9.030153 -2.372984 4.19158 -121.426896 -46.600003 -116.37123 48.76958 78.83382 -21.136276 -145.01361 36.917027 -158.538494 125.909644 50.74342 -126.183168 15.333693 -13.397936 -69.811766 172.284031 -72.17596 90.47891 -6.47777 -10.149146 -3.139282 168.855984 50.446147 -94.990164 48.961723 82.74428 75.709755 12.034439 -57.665243 18.07722 -20.896299 71.727425 -70.323813 -167.884057 56.531728 -94.673641 -78.159424 -13.674274 -85.246651 -32.722397 22.469366 16.60035 101.043661 -85.523712 58.695333 89.619594 4.665138 29.56136 -75.406834 -47.309296 1.579824 178.384591 79.803073 -0.0 152.212911 23.983041 -180.0 -14.528995 -68.577736 -81.149895 18.456607 40.583429 -107.813098 -65.101445 15.852129 -26.630535 80.998925 4.989633 90.789328 37.287827 30.488745 169.525415 -30.617268 41.299853 150.680056
-4.1298 59.15129999999999 3.1357000000000004 169.006985 -9.188294 -171.467014 -17.030718 8.897434 -116.790207 10.575979 11.253993 122.360529 36.425011 35.56926 62.759613 -48.035768 28.263761 -106.920767 -21.510069 -2.623039 13.745427 2.007064 -0.950524 -50.679962 -156.504361 0.731744 175.014664 81.826695 69.939841 -78.975862 -126.150739 -24.715186 127.639403 108.039527 -53.448576 92.062886 -89.31208 36.809967 43.529675 -63.570304 6.417664 33.386992 99.128785 -35.563481 52.090692 41.175885 -29.945313 82.229651 -161.406335 30.815841 114.699168 -62.442607 14.115727 38.304456 20.714834 -1.500591 10.00132 -69.92726 36.131193 -0.267046 -4.346761 -37.531137 14.964654 51.375185 31.443981 -62.829822 -3.976957 -25.44798 -0.834507 -40.04479 -16.83096 49.37632 67.535501 82.421622 -164.087008 19.205484 -26.375038 5.661261 -88.535221 -57.928795 -46.783569 9.331023 45.260859 174.281112 36.349818 -6.776015 77.571081 -153.996978 13.102865 56.286475 79.937354 67.002334 -74.988135 6.9148 30.089651 26.526198 -61.54565 21.088683 48.089119 -151.022053 35.531974 -136.683723 6.393939 77.760246 -90.629662 139.632946 -14.976098 128.491415 -12.08401 32.783044 -1.935019 -112.784211 -58.269954 -159.24651 -82.654812 59.452489 -175.775383 -12.282762 3.87402 -93.652835 57.646235 26.371322 9.336884 -55.846097 -24.549116 50.740493 58.06248 27.17556 170.920014 -42.493361 65.041004 162.217078
-4.5129 57.1082 2.9052000000000002 169.461828 -5.063745 -172.1853 -17.470766 -3.556376 -180.0 -8.097863 -4.316845 -177.444483 15.182655 13.892703 82.497384 -28.545042 18.580344 -118.119666 -32.119752 -8.423263 28.69741 -10.117062 1.330445 -14.945544 -20.686757 -57.011357 -43.417438 -103.607016 10.445929 148.037862 162.844007 -37.617333 -151.337763 -9.711326 57.568599 -0.670139 -25.533296 71.006064 6.978234 128.854877 -67.582838 127.740409 156.912675 -21.237423 42.710961 12.123685 14.063765 105.192239 -69.964838 38.275558 38.197195 -161.731884 -57.051959 98.576755 34.880598 -2.931971 -7.572298 -99.893985 15.994366 45.69949 -57.149668 15.64763 162.512338 101.977231 -69.504201 3.642854 147.842915 3.302774 -168.829601 -127.412799 -12.19895 -148.214747 126.671513 -29.105771 -77.212811 156.734725 -20.964062 -157.162055 57.208648 25.666923 -63.94328 -33.422217 80.092978 21.348573 148.585203 1.671246 -176.179989 14.074948 52.584916 79.975042 133.912415 -67.022184 178.165483 133.838316 -56.320227 -93.226856 -83.286335 67.087209 101.711169 152.91285 28.03196 -123.781508 74.510562 -24.451575 112.941061 141.745243 60.094998 154.157811 -82.472471 23.142019 -3.868459 33.250705 -76.466713 -0.0 77.634253 47.399338 22.423005 -13.666044 -2.971742 -86.576621 124.101012 69.264019 57.657318 -125.306834 66.593467 123.021402 35.284074 -47.80368 -85.901342 -1.168706 -31.031263 -25.889013
